<?xml version="1.0" encoding="UTF-8" standalone="no"?>
<!DOCTYPE svg PUBLIC "-//W3C//DTD SVG 1.1//EN" "http://www.w3.org/Graphics/SVG/1.1/DTD/svg11.dtd">
<svg width="100%" height="100%" viewBox="0 0 1046 257" version="1.1" xmlns="http://www.w3.org/2000/svg" xmlns:xlink="http://www.w3.org/1999/xlink" xml:space="preserve" xmlns:serif="http://www.serif.com/" style="fill-rule:evenodd;clip-rule:evenodd;stroke-linecap:round;stroke-linejoin:round;stroke-miterlimit:1.5;">
    <g transform="matrix(1,0,0,1,-387.275,23.3268)">
        <g transform="matrix(1.11214,0,0,1.11214,258.322,-397.218)">
            <g transform="matrix(0.371542,0,0,0.371542,-1028.79,-1012.61)">
                <circle cx="3349.67" cy="3720.87" r="80.501" style="fill:none;stroke:white;stroke-width:20.17px;"/>
            </g>
            <g transform="matrix(0.371542,0,0,0.371542,-1094.94,-958.444)">
                <circle cx="3349.67" cy="3720.87" r="80.501" style="fill:none;stroke:white;stroke-width:20.17px;"/>
            </g>
            <g transform="matrix(0.371542,0,0,0.371542,-1077.67,-879.051)">
                <circle cx="3349.67" cy="3720.87" r="80.501" style="fill:none;stroke:white;stroke-width:20.17px;"/>
            </g>
            <g transform="matrix(0.116168,0,0,0.116168,-184.579,37.7141)">
                <circle cx="3349.67" cy="3720.87" r="80.501" style="fill:white;"/>
            </g>
            <g transform="matrix(0.116168,0,0,0.116168,-162.166,-13.7629)">
                <circle cx="3349.67" cy="3720.87" r="80.501" style="fill:white;"/>
            </g>
            <g transform="matrix(0.116168,0,0,0.116168,-157.372,1.23628)">
                <circle cx="3349.67" cy="3720.87" r="80.501" style="fill:white;"/>
            </g>
            <g transform="matrix(0.116168,0,0,0.116168,-122.659,-4.41123)">
                <circle cx="3349.67" cy="3720.87" r="80.501" style="fill:white;"/>
            </g>
            <g transform="matrix(0.371542,0,0,0.371542,-993.694,-849.142)">
                <circle cx="3349.67" cy="3720.87" r="80.501" style="fill:none;stroke:white;stroke-width:20.17px;"/>
            </g>
            <g transform="matrix(0.371542,0,0,0.371542,-929.132,-901.569)">
                <circle cx="3349.67" cy="3720.87" r="80.501" style="fill:none;stroke:white;stroke-width:20.17px;"/>
            </g>
            <g transform="matrix(0.371542,0,0,0.371542,-944.079,-991.71)">
                <circle cx="3349.67" cy="3720.87" r="80.501" style="fill:none;stroke:white;stroke-width:20.17px;"/>
            </g>
            <g transform="matrix(1.34157,0,0,1.19942,-74.1062,-69.5365)">
                <path d="M224.413,343.125L224.413,369.103C224.413,370.667 223.278,371.937 221.879,371.937L210.241,371.937C208.843,371.937 207.707,370.667 207.707,369.103L207.707,343.125C207.707,341.561 208.843,340.291 210.241,340.291L221.879,340.291C223.278,340.291 224.413,341.561 224.413,343.125Z" style="fill:white;"/>
            </g>
            <g transform="matrix(1.34157,0,0,1.19942,25.5534,42.8323)">
                <path d="M224.413,343.125L224.413,369.103C224.413,370.667 223.278,371.937 221.879,371.937L210.241,371.937C208.843,371.937 207.707,370.667 207.707,369.103L207.707,343.125C207.707,341.561 208.843,340.291 210.241,340.291L221.879,340.291C223.278,340.291 224.413,341.561 224.413,343.125Z" style="fill:white;"/>
            </g>
        </g>
        <g transform="matrix(1,0,0,1,904.013,-305.644)">
            <text x="-171.647px" y="405.616px" style="font-family:'Dumbledor1', 'Dumbledor 1';font-size:125px;fill:white;">R<tspan x="-95.847px -33.901px 61.004px 142.603px 218.404px 304.214px 345.347px 440.252px " y="405.616px 405.616px 405.616px 405.616px 405.616px 405.616px 405.616px 405.616px ">ETURN TO</tspan></text>
            <g transform="matrix(125,0,0,125,409.617,497.282)">
            </g>
            <text x="-171.647px" y="497.282px" style="font-family:'Dumbledor1', 'Dumbledor 1';font-size:125px;fill:white;">G<tspan x="-80.893px -5.092px 33.294px 143.336px 238.484px 276.871px 352.671px " y="497.282px 497.282px 497.282px 497.282px 497.282px 497.282px 497.282px ">RIMOIRE</tspan></text>
        </g>
    </g>
</svg>
